<svg id="Layer_1" data-name="Layer 1" xmlns="http://www.w3.org/2000/svg" viewBox="0 0 410.91 410.91"><defs><style>.cls-1{fill:#242424;}</style></defs><path class="cls-1" d="M350.73,60.18A205.45,205.45,0,1,0,60.18,350.73a204.15,204.15,0,0,0,145.27,60.18h0A205.45,205.45,0,0,0,350.73,60.18ZM334.47,334.47a181.26,181.26,0,0,1-129,53.44h0a182.45,182.45,0,0,1-129-311.47,182.45,182.45,0,1,1,258,258Z" transform="translate(0 0)"/><path class="cls-1" d="M288.71,122.2a11.51,11.51,0,0,0-16.27,0l-67,67-67-67a11.5,11.5,0,0,0-16.26,16.26l67,67-67,67a11.5,11.5,0,1,0,16.26,16.27l67-67,67,67a11.5,11.5,0,0,0,16.27-16.27l-67-67,67-67A11.5,11.5,0,0,0,288.71,122.2Z" transform="translate(0 0)"/></svg>