<?xml version="1.0" encoding="utf-8"?>
<!-- Generator: Adobe Illustrator 25.1.0, SVG Export Plug-In . SVG Version: 6.00 Build 0)  -->
<svg version="1.1" id="_x2014_ÎÓÈ_x5F_1" xmlns="http://www.w3.org/2000/svg" xmlns:xlink="http://www.w3.org/1999/xlink"
	 x="0px" y="0px" viewBox="0 0 3505.22 974.59" style="enable-background:new 0 0 3505.22 974.59;" xml:space="preserve">
<style type="text/css">
	.st0{fill:#48D8BC;}
	.st1{opacity:0.1;fill:#FFFFFF;}
	.st2{fill:#FFFFFF;}
</style>
<g>
	<path class="st0" d="M3041.36,604.28c-15.92,15.92-15.92,41.73,0,57.65c7.96,7.96,18.39,11.94,28.83,11.94
		c10.43,0,20.87-3.98,28.83-11.94l141.92-141.92c15.92-15.92,15.92-41.73,0-57.65l-141.92-141.92c-15.92-15.92-41.73-15.92-57.65,0
		c-15.92,15.92-15.92,41.73,0,57.65l72.33,72.33h-403.12c-22.51,0-40.77,18.25-40.77,40.77c0,22.52,18.25,40.76,40.77,40.76h403.12
		L3041.36,604.28z"/>
	<path class="st0" d="M3380.95,54.27h-479.6c-38.35,0-69.54,31.2-69.54,69.54v284.88h81.53V135.8h455.62v710.76h-455.62V573.68
		h-81.53v284.88c0,38.34,31.2,69.54,69.54,69.54h479.6c38.35,0,69.54-31.2,69.54-69.54V123.82
		C3450.49,85.47,3419.29,54.27,3380.95,54.27z"/>
</g>
<path class="st1" d="M3451.88,974.59H53.34C23.88,974.59,0,950.71,0,921.25V53.34C0,23.88,23.88,0,53.34,0h3398.54
	c29.46,0,53.34,23.88,53.34,53.34v867.91C3505.22,950.71,3481.34,974.59,3451.88,974.59z"/>
<g>
	<path class="st2" d="M258.91,613.49v-98.82c0-7.75-1.19-12.81-3.55-15.18c-2.37-2.36-7.43-3.55-15.18-3.55h-47.8
		c-39.19,0-58.78-19.16-58.78-57.49V331.88c0-37.89,20.02-56.84,60.07-56.84h63.3c40.05,0,60.07,18.95,60.07,56.84v47.08
		c0,6.82-5.53,12.34-12.34,12.34H270.6c-6.82,0-12.34-5.53-12.34-12.34v-38.04c0-7.75-1.29-12.81-3.88-15.18
		c-2.58-2.36-7.75-3.55-15.5-3.55h-27.13c-7.75,0-12.92,1.19-15.5,3.55c-2.58,2.37-3.88,7.43-3.88,15.18v89.78
		c0,7.75,1.29,12.82,3.88,15.18c2.58,2.37,7.75,3.55,15.5,3.55h47.15c39.61,0,59.42,18.95,59.42,56.84v116.26
		c0,37.9-20.25,56.84-60.71,56.84h-62.65c-40.05,0-60.07-18.94-60.07-56.84v-47.08c0-6.82,5.53-12.34,12.34-12.34h34.09
		c6.82,0,12.34,5.53,12.34,12.34v38.04c0,7.75,1.29,12.82,3.88,15.18c2.58,2.37,7.75,3.55,15.5,3.55h27.13
		c7.75,0,12.81-1.18,15.18-3.55C257.72,626.31,258.91,621.24,258.91,613.49z"/>
	<path class="st2" d="M446.67,632.22h92.74c6.67,0,12.08,5.41,12.08,12.08v22.99c0,6.67-5.41,12.08-12.08,12.08H387.89
		c-6.67,0-12.08-5.41-12.08-12.08V287.12c0-6.67,5.41-12.08,12.08-12.08h147c6.67,0,12.08,5.41,12.08,12.08v22.99
		c0,6.67-5.41,12.08-12.08,12.08h-88.22c-6.67,0-12.08,5.41-12.08,12.08v100.49c0,6.67,5.41,12.08,12.08,12.08h68.84
		c6.67,0,12.08,5.41,12.08,12.08v22.99c0,6.67-5.41,12.08-12.08,12.08h-68.84c-6.67,0-12.08,5.41-12.08,12.08v114.06
		C434.59,626.81,440,632.22,446.67,632.22z"/>
	<path class="st2" d="M751.61,275.04h33.16c5.65,0,10.23,4.58,10.23,10.23v383.88c0,5.65-4.58,10.23-10.23,10.23h-40.88
		c-4.54,0-8.54-3-9.82-7.36L671,456.05c-3.31-11.35-20.04-8.96-20.04,2.87v210.22c0,5.65-4.58,10.23-10.23,10.23h-33.16
		c-5.65,0-10.23-4.58-10.23-10.23V285.26c0-5.65,4.58-10.23,10.23-10.23h43.46c4.55,0,8.55,3,9.82,7.36l60.48,207.44
		c3.31,11.35,20.04,8.96,20.04-2.86V285.26C741.38,279.62,745.96,275.04,751.61,275.04z"/>
	<path class="st2" d="M863.45,285.61c0-5.84,4.73-10.57,10.57-10.57h130.23c40.05,0,60.07,18.95,60.07,56.84v290.66
		c0,37.9-20.02,56.84-60.07,56.84H874.02c-5.84,0-10.57-4.73-10.57-10.57V285.61z M1005.55,614.78V339.63
		c0-7.75-1.29-12.81-3.88-15.18c-2.58-2.36-7.75-3.55-15.5-3.55H932.8c-5.84,0-10.57,4.73-10.57,10.57v291.47
		c0,5.84,4.73,10.57,10.57,10.57h53.37c7.75,0,12.92-1.18,15.5-3.55C1004.26,627.6,1005.55,622.53,1005.55,614.78z"/>
	<path class="st2" d="M1280.04,526.55v142.24c0,5.85-4.74,10.59-10.59,10.59h-36.96c-5.85,0-10.59-4.74-10.59-10.59V285.63
		c0-5.85,4.74-10.59,10.59-10.59h121.82c40.05,0,60.07,18.95,60.07,56.84v126.6c0,28.36-10.84,46.22-32.51,53.55
		c-5.69,1.93-8.6,8.24-6.42,13.84l54,139.09c2.69,6.94-2.43,14.42-9.87,14.42h-39.82c-4.43,0-8.38-2.75-9.92-6.9l-55.59-149.61
		c-1.54-4.15-5.5-6.9-9.92-6.9h-13.7C1284.78,515.96,1280.04,520.7,1280.04,526.55z M1280.04,332.78v126.09
		c0,5.85,4.74,10.59,10.59,10.59h46.25c7.75,0,12.92-1.18,15.5-3.55c2.58-2.36,3.88-7.43,3.88-15.18v-109.8
		c0-7.75-1.29-12.81-3.88-15.18c-2.58-2.36-7.75-3.55-15.5-3.55h-46.25C1284.78,322.19,1280.04,326.93,1280.04,332.78z"/>
	<path class="st2" d="M1477.68,286.3c0-6.22,5.04-11.26,11.26-11.26h121.15c40.05,0,60.07,18.95,60.07,56.84v134.35
		c0,37.9-20.02,56.84-60.07,56.84h-63.01c-6.22,0-11.26,5.04-11.26,11.26v133.78c0,6.22-5.04,11.26-11.26,11.26h-35.6
		c-6.22,0-11.26-5.04-11.26-11.26V286.3z M1612.03,457.18V340.92c0-7.75-1.29-12.81-3.88-15.18c-2.58-2.36-7.75-3.55-15.5-3.55
		h-45.58c-6.22,0-11.26,5.04-11.26,11.26v131.84c0,6.22,5.04,11.26,11.26,11.26h45.58c7.75,0,12.92-1.29,15.5-3.88
		C1610.74,470.1,1612.03,464.93,1612.03,457.18z"/>
	<path class="st2" d="M1993.74,285.76v382.89c0,5.92-4.8,10.72-10.72,10.72h-37.33c-5.92,0-10.72-4.8-10.72-10.72V332.91
		c0-5.92-4.8-10.72-10.72-10.72h-25.06c-5.92,0-10.72-4.8-10.72-10.72v-25.71c0-5.92,4.8-10.72,10.72-10.72h83.84
		C1988.94,275.04,1993.74,279.84,1993.74,285.76z"/>
	<path class="st2" d="M2141.63,599.93h65.24v41.98L2162.3,769.8h-20.67V599.93z"/>
	<path class="st2" d="M2395.46,340.92v55.26c0,5.86-4.75,10.62-10.62,10.62h-36.9c-5.86,0-10.62-4.75-10.62-10.62v-64.31
		c0-37.89,20.02-56.84,60.07-56.84h55.55c40.47,0,60.71,18.95,60.71,56.84v40.69c0,30.15-7.54,59.64-22.61,88.49l-79.33,155.73
		c-3.6,7.06,1.53,15.44,9.46,15.44h84.44c5.86,0,10.62,4.75,10.62,10.62v25.92c0,5.86-4.75,10.62-10.62,10.62h-157.03
		c-5.86,0-10.62-4.75-10.62-10.62V636.8c0-1.74,0.43-3.45,1.24-4.98l97.58-183.68c12.05-22.82,18.08-48.65,18.08-77.51v-29.71
		c0-7.75-1.19-12.81-3.55-15.18c-2.37-2.36-7.65-3.55-15.83-3.55h-20.67c-7.75,0-12.92,1.19-15.5,3.55
		C2396.75,328.11,2395.46,333.17,2395.46,340.92z"/>
</g>
</svg>
